<svg xmlns="http://www.w3.org/2000/svg" viewBox="0 0 431.61 431.81"><title>chip</title><g id="Layer_2" data-name="Layer 2"><g id="Layer_1-2" data-name="Layer 1"><g id="layer1"><g id="g7738"><path id="path3006" d="M72.28,431.8V322.2h85.36l-.51-81.82,73.74-104.55h40.91l74.89,66.31V431.8" style="fill:none;stroke:#173513;stroke-width:7px"/><path id="path3010" d="M157.78,292h32.32" style="fill:none;stroke:#173513;stroke-width:7px"/><path id="path3012" d="M156.77,275.37H189.1" style="fill:none;stroke:#173513;stroke-width:7px"/><path id="path3014" d="M222.43,121.83H80V306.69" style="fill:none;stroke:#173513;stroke-width:7px"/><path id="path3016" d="M80.51,280.43h35.36" style="fill:none;stroke:#173513;stroke-width:7px"/><path id="path3028-1" d="M199,275.37a4.82,4.82,0,1,1-4.82-4.82A4.82,4.82,0,0,1,199,275.37Z" style="fill:none;stroke:#173513;stroke-width:7px"/><path id="path3059" d="M83,153.15h30.81V122.34" style="fill:none;stroke:#173513;stroke-width:7px"/><path id="path3065" d="M127.48,152.64v33.84" style="fill:none;stroke:#173513;stroke-width:7px"/><path id="path3067" d="M105.76,152.64v53" style="fill:none;stroke:#173513;stroke-width:7px"/><path id="path3073" d="M293.65,325.88H172.43v22.22H75" style="fill:none;stroke:#173513;stroke-width:7px"/><path id="path3075" d="M261.32,325.88V293.56" style="fill:none;stroke:#173513;stroke-width:7px"/><path id="path3077" d="M237.08,325.88V293.56" style="fill:none;stroke:#173513;stroke-width:7px"/><path id="path3079" d="M329.51,324.37V207.19l-62.12-57.07h-45" style="fill:none;stroke:#173513;stroke-width:7px"/><path id="path3081" d="M233.55,200.62V227.9h20.71v-7.58H282V239h13.64V203.15H244.15V192H233.55Z" style="fill:none;stroke:#173513;stroke-width:7px"/><path id="path3083" d="M288.09,238.5v23.23" style="fill:none;stroke:#173513;stroke-width:7px"/><path id="path3085" d="M232,196.58H217.89" style="fill:none;stroke:#173513;stroke-width:7px"/><path id="path3087" d="M232,226.38H217.89" style="fill:none;stroke:#173513;stroke-width:7px"/><path id="path3089" d="M271.93,202.14V186.48" style="fill:none;stroke:#173513;stroke-width:7px"/><path id="path3091" d="M243.65,227.39V248.1" style="fill:none;stroke:#173513;stroke-width:7px"/><path id="path3093" d="M198.46,292.55a4.82,4.82,0,1,1-4.82-4.82A4.82,4.82,0,0,1,198.46,292.55Z" style="fill:none;stroke:#173513;stroke-width:7px"/><path id="path3095" d="M242.4,291a4.82,4.82,0,1,1-4.82-4.82A4.82,4.82,0,0,1,242.4,291Z" style="fill:none;stroke:#173513;stroke-width:7px"/><path id="path3097" d="M266.14,290.53a4.82,4.82,0,1,1-4.82-4.82A4.82,4.82,0,0,1,266.14,290.53Z" style="fill:none;stroke:#173513;stroke-width:7px"/><path id="path3099" d="M124.21,280.43a4.82,4.82,0,1,1-4.82-4.82A4.82,4.82,0,0,1,124.21,280.43Z" style="fill:none;stroke:#173513;stroke-width:7px"/><path id="path3101" d="M110.07,208.2a4.82,4.82,0,1,1-4.82-4.82A4.82,4.82,0,0,1,110.07,208.2Z" style="fill:none;stroke:#173513;stroke-width:7px"/><path id="path3103" d="M131.79,189.51A4.82,4.82,0,1,1,127,184.7,4.82,4.82,0,0,1,131.79,189.51Z" style="fill:none;stroke:#173513;stroke-width:7px"/><path id="path3107" d="M277.25,181.94a4.82,4.82,0,1,1-4.82-4.82A4.82,4.82,0,0,1,277.25,181.94Z" style="fill:none;stroke:#173513;stroke-width:7px"/><path id="path3109" d="M292.91,265.27a4.82,4.82,0,1,1-4.82-4.82A4.82,4.82,0,0,1,292.91,265.27Z" style="fill:none;stroke:#173513;stroke-width:7px"/><path id="path3111" d="M248.46,251.13a4.82,4.82,0,1,1-4.82-4.82A4.82,4.82,0,0,1,248.46,251.13Z" style="fill:none;stroke:#173513;stroke-width:7px"/><path id="path3113" d="M218.66,226.89a4.82,4.82,0,1,1-4.82-4.82A4.82,4.82,0,0,1,218.66,226.89Z" style="fill:none;stroke:#173513;stroke-width:7px"/><path id="path3115" d="M218.66,195.07a4.82,4.82,0,1,1-4.82-4.82A4.82,4.82,0,0,1,218.66,195.07Z" style="fill:none;stroke:#173513;stroke-width:7px"/><path id="path3117" d="M152.86,175.71h31.43" style="fill:none;stroke:#173513;stroke-width:7px"/><path id="path3119" d="M293.57,386.43V415" style="fill:none;stroke:#173513;stroke-width:7px"/><path id="path3125" d="M265.71,121.43V87.14h52.14V37.86H265.71V0" style="fill:none;stroke:#173513;stroke-width:7px"/><path id="path3127" d="M345,350.71H332.86" style="fill:none;stroke:#173513;stroke-width:7px"/><path id="path3129" d="M347.86,375H321.43" style="fill:none;stroke:#173513;stroke-width:7px"/><path id="path3131" d="M361.43,362.86h70.18" style="fill:none;stroke:#173513;stroke-width:7px"/><path id="path3137" d="M237.86,105.71V62.14H352.14" style="fill:none;stroke:#173513;stroke-width:7px"/><path id="path3139" d="M317.86,86.43V120" style="fill:none;stroke:#173513;stroke-width:7px"/><path id="path3141" d="M334.18,351.13a4.82,4.82,0,1,1-4.82-4.82A4.82,4.82,0,0,1,334.18,351.13Z" style="fill:none;stroke:#173513;stroke-width:7px"/><path id="path3143" d="M319.89,374a4.82,4.82,0,1,1-4.82-4.82A4.82,4.82,0,0,1,319.89,374Z" style="fill:none;stroke:#173513;stroke-width:7px"/><path id="path3145" d="M298.46,417.56a4.82,4.82,0,1,1-4.82-4.82A4.82,4.82,0,0,1,298.46,417.56Z" style="fill:none;stroke:#173513;stroke-width:7px"/><path id="path3147" d="M322.75,122.56a4.82,4.82,0,1,1-4.82-4.82A4.82,4.82,0,0,1,322.75,122.56Z" style="fill:none;stroke:#173513;stroke-width:7px"/><path id="path3149" d="M361.32,62.56a4.82,4.82,0,1,1-4.82-4.82A4.82,4.82,0,0,1,361.32,62.56Z" style="fill:none;stroke:#173513;stroke-width:7px"/><path id="path3151" d="M170.71,347.86h45" style="fill:none;stroke:#173513;stroke-width:7px"/><path id="path3153" d="M261.43,325.71v23.57H240v35" style="fill:none;stroke:#173513;stroke-width:7px"/><path id="path3155" d="M95,407.14V379.29" style="fill:none;stroke:#173513;stroke-width:7px"/><path id="path3157" d="M385.71,362.14V324.29h35.71v12.86h10.18" style="fill:none;stroke:#173513;stroke-width:7px"/><path id="path3169" d="M76.43,73.57l60.71-27.86h58.57l66.43-32.86" style="fill:none;stroke:#173513;stroke-width:7px"/><path id="path3171" d="M76.43,87.14l60.71-27.86h58.57l66.43-32.86" style="fill:none;stroke:#173513;stroke-width:7px"/><path id="path3173" d="M138.57,47.86V22.14" style="fill:none;stroke:#173513;stroke-width:7px"/><path id="path3175" d="M145.71,60v44.29" style="fill:none;stroke:#173513;stroke-width:7px"/><path id="path3177" d="M171.43,61.43v20" style="fill:none;stroke:#173513;stroke-width:7px"/><path id="path3179" d="M143.22,17.37a4.82,4.82,0,1,1-4.82-4.82A4.82,4.82,0,0,1,143.22,17.37Z" style="fill:none;stroke:#173513;stroke-width:7px"/><path id="path3181" d="M176.79,84.51A4.82,4.82,0,1,1,172,79.7,4.82,4.82,0,0,1,176.79,84.51Z" style="fill:none;stroke:#173513;stroke-width:7px"/><path id="path3183" d="M385.71,324.29V243.57" style="fill:none;stroke:#173513;stroke-width:7px"/><path id="path3187" d="M407.14,324.29V151.43H380L318.57,87.14" style="fill:none;stroke:#173513;stroke-width:7px"/><path id="path3189" d="M390.36,240.94a4.82,4.82,0,1,1-4.82-4.82A4.82,4.82,0,0,1,390.36,240.94Z" style="fill:none;stroke:#173513;stroke-width:7px"/><path id="path3191" d="M405,362.86v39.29h26.61" style="fill:none;stroke:#173513;stroke-width:7px"/><path id="path3195" d="M38.93,403.08a4.82,4.82,0,1,1-4.82-4.82A4.82,4.82,0,0,1,38.93,403.08Z" style="fill:none;stroke:#173513;stroke-width:7px"/><path id="path3197" d="M225.36,348.08a4.82,4.82,0,1,1-4.82-4.82A4.82,4.82,0,0,1,225.36,348.08Z" style="fill:none;stroke:#173513;stroke-width:7px"/><path id="path3199" d="M100.36,376.65a4.82,4.82,0,1,1-4.82-4.82A4.82,4.82,0,0,1,100.36,376.65Z" style="fill:none;stroke:#173513;stroke-width:7px"/><path id="path3203" d="M195,45V0" style="fill:none;stroke:#173513;stroke-width:7px"/><path id="path3209" d="M195.71,10.71h20.71" style="fill:none;stroke:#173513;stroke-width:7px"/><path id="path3211" d="M226.79,10.94A4.82,4.82,0,1,1,222,6.12,4.82,4.82,0,0,1,226.79,10.94Z" style="fill:none;stroke:#173513;stroke-width:7px"/><path id="path3217" d="M361.43,62.86h27.14V92.14h43" style="fill:none;stroke:#173513;stroke-width:7px"/><path id="path3219" d="M56.43,107.14H0" style="fill:none;stroke:#173513;stroke-width:7px"/><path id="path3221" d="M290.29,36.43V20.71" style="fill:none;stroke:#173513;stroke-width:7px"/><path id="path3225" d="M326.43,37.51V21.57" style="fill:none;stroke:#173513;stroke-width:7.5868754386901855px"/><path id="path3227" d="M294.93,16.65a4.82,4.82,0,1,1-4.82-4.82A4.82,4.82,0,0,1,294.93,16.65Z" style="fill:none;stroke:#173513;stroke-width:7px"/><path id="path3231" d="M331.08,15.94a4.82,4.82,0,1,1-4.82-4.82A4.82,4.82,0,0,1,331.08,15.94Z" style="fill:none;stroke:#173513;stroke-width:7px"/><path id="path3233" d="M45.71,30H0" style="fill:none;stroke:#173513;stroke-width:7px"/><path id="path3241" d="M387.86,62.86h43.75" style="fill:none;stroke:#173513;stroke-width:7px"/><path id="path3247" d="M25,154.29v37.86H42.14v21.43H55.71" style="fill:none;stroke:#173513;stroke-width:7px"/><path id="path3251" d="M164.29,390.71v12.86" style="fill:none;stroke:#173513;stroke-width:7px"/><path id="path3255" d="M410.93,113.8a4.82,4.82,0,1,1-4.82-4.82A4.82,4.82,0,0,1,410.93,113.8Z" style="fill:none;stroke:#173513;stroke-width:7px"/><path id="path3261" d="M168.93,408.08a4.82,4.82,0,1,1-4.82-4.82A4.82,4.82,0,0,1,168.93,408.08Z" style="fill:none;stroke:#173513;stroke-width:7px"/><path id="path3202" d="M58.28,431.8V308.2h85.36V235l79.8-113.14h52.48l84.9,74.75V431.8" style="fill:none;stroke:#173513;stroke-width:7px"/><path id="path3204" d="M72.28,431.8V322.2h85.36l-.51-81.82,73.74-104.55h40.91l74.89,66.31V431.8" style="fill:none;stroke:#173513;stroke-width:7px"/><path id="path3210" d="M222.43,121.83H80V306.69" style="fill:none;stroke:#173513;stroke-width:7px"/><g id="g3444"><path id="path3208" d="M156.77,275.37H189.1" style="fill:none;stroke:#173513;stroke-width:7px"/><path id="path3214" d="M199,275.37a4.82,4.82,0,1,1-4.82-4.82A4.82,4.82,0,0,1,199,275.37Z" style="fill:none;stroke:#173513;stroke-width:7px"/></g><path id="path3216" d="M83,153.15h30.81V122.34" style="fill:none;stroke:#173513;stroke-width:7px"/><path id="path3218" d="M112.83,153.15h38.89" style="fill:none;stroke:#173513;stroke-width:7px"/><path id="path3226" d="M75,408.21h52V386H294.15v-60.1h53" style="fill:none;stroke:#173513;stroke-width:7px"/><path id="path3228" d="M293.65,325.88H172.43v22.22H75" style="fill:none;stroke:#173513;stroke-width:7px"/><path id="path3234" d="M329.51,324.37V207.19l-62.12-57.07h-45" style="fill:none;stroke:#173513;stroke-width:7px"/><path id="path3236" d="M233.55,200.62V227.9h20.71v-7.58H282V239h13.64V203.15H244.15V192H233.55Z" style="fill:none;stroke:#173513;stroke-width:7px"/><path id="path3238" d="M288.09,238.5v23.23" style="fill:none;stroke:#173513;stroke-width:7px"/><path id="path3240" d="M232,196.58H217.89" style="fill:none;stroke:#173513;stroke-width:7px"/><path id="path3242" d="M232,226.38H217.89" style="fill:none;stroke:#173513;stroke-width:7px"/><path id="path3244" d="M271.93,202.14V186.48" style="fill:none;stroke:#173513;stroke-width:7px"/><path id="path3246" d="M243.65,227.39V248.1" style="fill:none;stroke:#173513;stroke-width:7px"/><g id="g3448"><path id="path3206" d="M157.78,292h32.32" style="fill:none;stroke:#173513;stroke-width:7px"/><path id="path3248" d="M198.46,292.55a4.82,4.82,0,1,1-4.82-4.82A4.82,4.82,0,0,1,198.46,292.55Z" style="fill:none;stroke:#173513;stroke-width:7px"/></g><g id="g3436"><path id="path3232" d="M237.08,325.88V293.56" style="fill:none;stroke:#173513;stroke-width:7px"/><path id="path3250" d="M242.4,291a4.82,4.82,0,1,1-4.82-4.82A4.82,4.82,0,0,1,242.4,291Z" style="fill:none;stroke:#173513;stroke-width:7px"/></g><g id="g3440"><path id="path3230" d="M261.32,325.88V293.56" style="fill:none;stroke:#173513;stroke-width:7px"/><path id="path3252" d="M266.14,290.53a4.82,4.82,0,1,1-4.82-4.82A4.82,4.82,0,0,1,266.14,290.53Z" style="fill:none;stroke:#173513;stroke-width:7px"/></g><g id="g3452"><path id="path3212" d="M80.51,280.43h35.36" style="fill:none;stroke:#173513;stroke-width:7px"/><path id="path3254" d="M124.21,280.43a4.82,4.82,0,1,1-4.82-4.82A4.82,4.82,0,0,1,124.21,280.43Z" style="fill:none;stroke:#173513;stroke-width:7px"/></g><g id="g3456"><path id="path3224" d="M105.76,152.64v53" style="fill:none;stroke:#173513;stroke-width:7px"/><path id="path3256" d="M110.58,208.2a4.82,4.82,0,1,1-4.82-4.82A4.82,4.82,0,0,1,110.58,208.2Z" style="fill:none;stroke:#173513;stroke-width:7px"/></g><g id="g3460"><path id="path3222" d="M127.48,152.64v33.84" style="fill:none;stroke:#173513;stroke-width:7px"/><path id="path3258" d="M132.3,189.51a4.82,4.82,0,1,1-4.82-4.82A4.82,4.82,0,0,1,132.3,189.51Z" style="fill:none;stroke:#173513;stroke-width:7px"/></g><path id="path3262" d="M277.25,181.94a4.82,4.82,0,1,1-4.82-4.82A4.82,4.82,0,0,1,277.25,181.94Z" style="fill:none;stroke:#173513;stroke-width:7px"/><path id="path3264" d="M292.91,265.27a4.82,4.82,0,1,1-4.82-4.82A4.82,4.82,0,0,1,292.91,265.27Z" style="fill:none;stroke:#173513;stroke-width:7px"/><path id="path3266" d="M248.46,251.13a4.82,4.82,0,1,1-4.82-4.82A4.82,4.82,0,0,1,248.46,251.13Z" style="fill:none;stroke:#173513;stroke-width:7px"/><path id="path3268" d="M218.66,226.89a4.82,4.82,0,1,1-4.82-4.82A4.82,4.82,0,0,1,218.66,226.89Z" style="fill:none;stroke:#173513;stroke-width:7px"/><path id="path3270" d="M218.66,195.07a4.82,4.82,0,1,1-4.82-4.82A4.82,4.82,0,0,1,218.66,195.07Z" style="fill:none;stroke:#173513;stroke-width:7px"/><g id="g3464"><path id="path3220" d="M148.19,150.62v22.73" style="fill:none;stroke:#173513;stroke-width:7px"/><path id="path3260" d="M153,175.87a4.82,4.82,0,1,1-4.82-4.82A4.82,4.82,0,0,1,153,175.87Z" style="fill:none;stroke:#173513;stroke-width:7px"/><path id="path3272" d="M153.43,175.71h30.85" style="fill:none;stroke:#173513;stroke-width:6.935800075531006px"/></g><path id="path3274" d="M293.93,386.43V415" style="fill:none;stroke:#173513;stroke-width:7px"/><path id="path3276" d="M265.71,386.43V431.8" style="fill:none;stroke:#173513;stroke-width:7px"/><path id="path3278" d="M265.71,121.43V87.14h52.14V37.86H265.71V0" style="fill:none;stroke:#173513;stroke-width:7px"/><path id="path3280" d="M345,350.71H332.86" style="fill:none;stroke:#173513;stroke-width:7px"/><path id="path3282" d="M347.86,375H321.43" style="fill:none;stroke:#173513;stroke-width:7px"/><path id="path3284" d="M361.43,362.86h70.18" style="fill:none;stroke:#173513;stroke-width:7px"/><path id="path3286" d="M57.86,362.86H0" style="fill:none;stroke:#173513;stroke-width:7px"/><path id="path3288" d="M58.21,308.57V107.14H267.14" style="fill:none;stroke:#173513;stroke-width:7px"/><path id="path3290" d="M237.86,105.71V62.14H352.14" style="fill:none;stroke:#173513;stroke-width:7px"/><path id="path3292" d="M317.86,86.43V120" style="fill:none;stroke:#173513;stroke-width:7px"/><path id="path3294" d="M334.18,351.13a4.82,4.82,0,1,1-4.82-4.82A4.82,4.82,0,0,1,334.18,351.13Z" style="fill:none;stroke:#173513;stroke-width:7px"/><path id="path3296" d="M319.89,374.7a4.82,4.82,0,1,1-4.82-4.82A4.82,4.82,0,0,1,319.89,374.7Z" style="fill:none;stroke:#173513;stroke-width:7px"/><path id="path3298" d="M298.82,417.56a4.82,4.82,0,1,1-4.82-4.82A4.82,4.82,0,0,1,298.82,417.56Z" style="fill:none;stroke:#173513;stroke-width:7px"/><path id="path3300" d="M322.75,122.56a4.82,4.82,0,1,1-4.82-4.82A4.82,4.82,0,0,1,322.75,122.56Z" style="fill:none;stroke:#173513;stroke-width:7px"/><path id="path3302" d="M361.32,62.56a4.82,4.82,0,1,1-4.82-4.82A4.82,4.82,0,0,1,361.32,62.56Z" style="fill:none;stroke:#173513;stroke-width:7px"/><path id="path3306" d="M261.43,325.71v23.57H240v35" style="fill:none;stroke:#173513;stroke-width:7px"/><path id="path3310" d="M385.71,362.14V324.29h35.71v12.86h10.18" style="fill:none;stroke:#173513;stroke-width:7px"/><path id="path3314" d="M316.43,37.86h44.4V0" style="fill:none;stroke:#173513;stroke-width:7px"/><path id="path3316" d="M346.68,40.71V0" style="fill:none;stroke:#173513;stroke-width:7px"/><path id="path3318" d="M58,106.43V70.71l-12.84-7L45,30H58.28V0" style="fill:none;stroke:#173513;stroke-width:7px"/><path id="path3320" d="M77.5,106.43V62.86L60.36,52.68l.36-9.11H72.28V0" style="fill:none;stroke:#173513;stroke-width:7px"/><path id="path3322" d="M75.36,73.57l61.79-27.86h58.57l68.21-33.57" style="fill:none;stroke:#173513;stroke-width:7px"/><path id="path3324" d="M75.8,87.14l61.34-27.86h58.57l68.21-33.93" style="fill:none;stroke:#173513;stroke-width:7px"/><path id="path3326" d="M138.57,47.86V22.14" style="fill:none;stroke:#173513;stroke-width:7px"/><path id="path3328" d="M145.71,60v44.29" style="fill:none;stroke:#173513;stroke-width:7px"/><path id="path3330" d="M171.43,61.43v20" style="fill:none;stroke:#173513;stroke-width:7px"/><path id="path3332" d="M143.22,17.37a4.82,4.82,0,1,1-4.82-4.82A4.82,4.82,0,0,1,143.22,17.37Z" style="fill:none;stroke:#173513;stroke-width:7px"/><path id="path3334" d="M176.79,84.51A4.82,4.82,0,1,1,172,79.7,4.82,4.82,0,0,1,176.79,84.51Z" style="fill:none;stroke:#173513;stroke-width:7px"/><path id="path3336" d="M385.71,324.29V243.57" style="fill:none;stroke:#173513;stroke-width:7px"/><path id="path3338" d="M407.14,324.29V151.43H380L318.57,86.25" style="fill:none;stroke:#173513;stroke-width:7px"/><path id="path3340" d="M390.36,240.94a4.82,4.82,0,1,1-4.82-4.82A4.82,4.82,0,0,1,390.36,240.94Z" style="fill:none;stroke:#173513;stroke-width:7px"/><path id="path3342" d="M405,362.86v39.29h26.61" style="fill:none;stroke:#173513;stroke-width:7px"/><g id="g3416"><path id="path3344" d="M0,402.14H30" style="fill:none;stroke:#173513;stroke-width:7px"/></g><g id="g3420"><path id="path3308" d="M95,407.14V379.29" style="fill:none;stroke:#173513;stroke-width:7px"/><path id="path3350" d="M100.36,376.65a4.82,4.82,0,1,1-4.82-4.82A4.82,4.82,0,0,1,100.36,376.65Z" style="fill:none;stroke:#173513;stroke-width:7px"/></g><path id="path3352" d="M195,45V0" style="fill:none;stroke:#173513;stroke-width:7px"/><path id="path3354" d="M195.09,431.8l-.18-45.37" style="fill:none;stroke:#173513;stroke-width:7px"/><g id="g3428"><path id="path3356" d="M197.57,411.6h32.86" style="fill:none;stroke:#173513;stroke-width:7px"/><path id="path3362" d="M239.36,411.83a4.82,4.82,0,1,1-4.82-4.82A4.82,4.82,0,0,1,239.36,411.83Z" style="fill:none;stroke:#173513;stroke-width:7px"/></g><path id="path3364" d="M361.43,62.86h27.14V92.14h43" style="fill:none;stroke:#173513;stroke-width:7px"/><path id="path3366" d="M56.43,92.14H0" style="fill:none;stroke:#173513;stroke-width:7px"/><path id="path3378" d="M431.61,30H414.29" style="fill:none;stroke:#173513;stroke-width:7px"/><path id="path3380" d="M44.29,47.55H30" style="fill:none;stroke:#173513;stroke-width:7px"/><path id="path3382" d="M42.86,62.86H0" style="fill:none;stroke:#173513;stroke-width:7px"/><path id="path3384" d="M387.86,62.86h43.75" style="fill:none;stroke:#173513;stroke-width:7px"/><path id="path3386" d="M406.43,119.29v32.14h25.18" style="fill:none;stroke:#173513;stroke-width:7px"/><path id="path3388" d="M56.43,151.43H0" style="fill:none;stroke:#173513;stroke-width:7px"/><path id="path3390" d="M25,154.29v37.86H42.14v21.43H55.71" style="fill:none;stroke:#173513;stroke-width:7px"/><path id="path3396" d="M414.5,29.51a4.82,4.82,0,1,1-4.82-4.82A4.82,4.82,0,0,1,414.5,29.51Z" style="fill:none;stroke:#173513;stroke-width:7px"/><path id="path3312" d="M0,337.14H20.71V365" style="fill:none;stroke:#173513;stroke-width:7px"/><g id="g3406"><path id="path3392" d="M20.59,338.57V311.43" style="fill:none;stroke:#173513;stroke-width:7px"/><path id="path3400" d="M25.36,308.08a4.82,4.82,0,1,1-4.82-4.82A4.82,4.82,0,0,1,25.36,308.08Z" style="fill:none;stroke:#173513;stroke-width:7px"/></g><path id="path3402" d="M31.65,47.55a4.82,4.82,0,1,1-4.82-4.82A4.82,4.82,0,0,1,31.65,47.55Z" style="fill:none;stroke:#173513;stroke-width:7px"/><g id="g3424"><path id="path3394" d="M164.29,388.71v12.86" style="fill:none;stroke:#173513;stroke-width:7px"/><path id="path3404" d="M168.93,408.08a4.82,4.82,0,1,1-4.82-4.82A4.82,4.82,0,0,1,168.93,408.08Z" style="fill:none;stroke:#173513;stroke-width:7px"/></g><path id="path7338" d="M418.34,91.55v15.66h13.27" style="fill:none;stroke:#173513;stroke-width:7px"/></g></g></g></g></svg>