<svg xmlns="http://www.w3.org/2000/svg" viewBox="0 0 251.37 304.03"><title>cracks</title><g id="Layer_2" data-name="Layer 2"><g id="Layer_1-2" data-name="Layer 1"><g style="opacity:0.12"><polyline points="29.22 0.9 55.31 52.48 88.68 59.15 68.05 100.41 116.59 127.72 105.67 162.91 73.51 182.93 94.14 222.37 140.86 236.32 158.46 259.99 166.35 303.68" style="fill:none;stroke:#000;stroke-miterlimit:10;stroke-width:4px"/><polyline points="161.49 211.45 135.4 203.56 112.35 207.81 91.11 190.21 95.36 170.19" style="fill:none;stroke:#000;stroke-miterlimit:10;stroke-width:4px"/><polyline points="147.54 11.82 146.22 56.11 145.72 73.11 120.84 79.78 102.64 119.22" style="fill:none;stroke:#000;stroke-miterlimit:10;stroke-width:4px"/><polyline points="165.74 17.89 156.03 57.94 146.32 60.97" style="fill:none;stroke:#000;stroke-miterlimit:10;stroke-width:4px"/><polyline points="224.6 159.27 201.54 130.14 192.44 112.55 177.88 119.22 163.92 118.61" style="fill:none;stroke:#000;stroke-miterlimit:10;stroke-width:4px"/><polyline points="231.27 210.24 188.19 206.59 173.63 175.65 140.86 168.97 138.44 141.06 161.49 128.93 168.78 90.7 222.78 74.93" style="fill:none;stroke:#000;stroke-miterlimit:10;stroke-width:4px"/><polyline points="176.66 289.72 182.73 255.74 166.95 241.18 180.3 222.37 202.75 219.94 251.29 221.76" style="fill:none;stroke:#000;stroke-miterlimit:10;stroke-width:4px"/><polyline points="0.7 135.6 44.39 151.99 71.69 136.21 92.32 137.42" style="fill:none;stroke:#000;stroke-miterlimit:10;stroke-width:4px"/><polyline points="5.56 181.11 47.42 207.2 26.79 242.39 52.88 247.25 65.02 230.26 107.49 246.03" style="fill:none;stroke:#000;stroke-miterlimit:10;stroke-width:4px"/><polyline points="121.45 264.84 83.22 247.85 80.79 235.72" style="fill:none;stroke:#000;stroke-miterlimit:10;stroke-width:4px"/><polyline points="71.69 233.9 72.3 244.82 76.55 259.38 90.5 267.88 100.21 302.46" style="fill:none;stroke:#000;stroke-miterlimit:10;stroke-width:4px"/><polyline points="3.74 47.62 32.25 67.65 32.25 98.59 47.42 105.87" style="fill:none;stroke:#000;stroke-miterlimit:10;stroke-width:4px"/><polyline points="226.42 186.57 199.72 196.89 196.08 207.81" style="fill:none;stroke:#000;stroke-miterlimit:10;stroke-width:4px"/><polyline points="9.2 259.99 43.78 261.81 61.98 292.15" style="fill:none;stroke:#000;stroke-miterlimit:10;stroke-width:4px"/></g></g></g></svg>